<svg xmlns="http://www.w3.org/2000/svg" viewBox="0 0 375.71 173.01">
  <defs>
    <style>
      .cls-1 {
        fill: none;
      }

      .cls-1, .cls-2 {
        stroke: #000;
        stroke-miterlimit: 10;
      }

      .cls-2, .cls-3 {
        fill: #fff;
      }
    </style>
  </defs>
  <title>laika</title>
  <g id="Layer_2" data-name="Layer 2">
    <path class="cls-1" d="M303.5,159.5c-5.23-5.45-1.12-9.45-6-15-4.48-5.1-8.18-.71-12-5-1.47-1.66-2-4.53-1.74-7.94-8.71,4.06-17.37,8.44-23.4,15.53,1.55.5,3.25,1,5.14,1.41,11.71,2.69,15.64.45,22,5,11.6,8.3,9.16,23.39,17,25,6.21,1.27,12-6.9,13-10C319.5,162.5,307.48,163.65,303.5,159.5Z" transform="translate(-12.43 -12.63)"/>
    <path class="cls-1" d="M387.5,75.5c-1.38-1.48-11,9.59-29,17-5.35,2.2-23.5,9.43-45,6-10.75-1.72-12.19-4.48-37-15-21.66-9.18-32.48-13.78-40-15-8.21-1.34-10.41-.42-63,5-15.94,1.64-20,2-26,0-14.64-4.88-24.11-18.26-31-28-10-14.14-7.59-17-15-23-10.8-8.76-28.23-12.7-40-6-5.18,2.95-4.08,6-10,9S39.18,28.55,29,28.59c-8.92,0-11.28-.84-12.48.91-2.82,4.11,2.4,14.37,10,21,14.74,12.86,27.53,2.57,47,11,10.89,4.71,21.59,23.48,43,61,.85,1.5,1.85,3.26,2.78,5.28,6.56,23,25.83,36.38,33.22,17.72,5.64-.81,14.37,1.41,21,2,28.74,2.57,35.36-20.62,58-16,9.5,1.94,11.92,6.57,19,11,22.47,15.71,28,4,37.44-23.88,2.89-5.19,7.16-9.85,12.56-12.12,13.12-5.51,20.62,8.28,41,5,13.75-2.21,23.69-10.64,30-16C381.18,87.28,388.78,76.88,387.5,75.5Z" transform="translate(-12.43 -12.63)"/>
    <path class="cls-1" d="M123.5,138.5c.17,1.74-.82,4.09-1,6-.16,1.64-1.36,12.64-10,20-8.14,6.93-16.94,5.57-17,8-.07,3.06,13.79,9.07,22,4,6.64-4.11,3.9-12,11-16,6.59-3.74,10-3,15-5,1.21-.48,3.06-1,3.14-2C139.19,147.51,132.33,141.56,123.5,138.5Z" transform="translate(-12.43 -12.63)"/>
    <path class="cls-2" d="M78.5,40.5c-1.27,4-12.63,40.67-2,47a8.85,8.85,0,0,0,5,1c9.55-.65,16.3-15.25,18-25,2.64-15.18-5.45-27.44-8-31Z" transform="translate(-12.43 -12.63)"/>
    <path class="cls-2" d="M153.5,114.5c6.73.53,19,1.51,23,9,6.25,11.6-12,29.84-7,35,4.2,4.32,18.77-6.63,23-2,2.55,2.79.34,10.16-4,14-6,5.27-16.41,4.35-23,0-10.25-6.77-6.44-18.74-16-33-6.32-9.43-15.11-14.82-22-18A51,51,0,0,1,153.5,114.5Z" transform="translate(-12.43 -12.63)"/>
    <ellipse class="cls-3" cx="140.07" cy="94.37" rx="31" ry="22.5"/>
    <ellipse class="cls-3" cx="234.07" cy="97.37" rx="38.5" ry="21"/>
    <ellipse class="cls-3" cx="235.07" cy="97.37" rx="38.5" ry="21"/>
    <ellipse class="cls-3" cx="236.07" cy="97.37" rx="38.5" ry="21"/>
    <ellipse class="cls-3" cx="237.07" cy="97.37" rx="38.5" ry="21"/>
    <ellipse class="cls-3" cx="238.07" cy="97.37" rx="38.5" ry="21"/>
    <ellipse class="cls-3" cx="239.07" cy="97.37" rx="38.5" ry="21"/>
    <ellipse class="cls-3" cx="69.57" cy="24.37" rx="13" ry="9"/>
    <ellipse class="cls-3" cx="255.82" cy="119.62" rx="14.75" ry="17.75"/>
    <path class="cls-2" d="M284,120.37a4.64,4.64,0,0,1-3.4,1.33,5.14,5.14,0,0,1-1.88-.34,5.14,5.14,0,0,1-1.88.34,4.52,4.52,0,0,1-4-2.15,4.68,4.68,0,0,1-3.19,1.14,4.54,4.54,0,0,1-4.35-2.71c-8.47.28-16.94.75-25.42.69-1.33,11.17,0,23.11,8.61,27.84,2.18,1.2,4.44,1.91,5,4,1.33,4.95-7.79,14.15-18,16-7.24,1.31-12.39-1.56-14,1-1.25,2,.55,5.86,3,8,4.78,4.18,15.41,5.45,17,1,1.66-4.66,9.86-7.87,27-21,6.94-5.32-2.07-14.59,3-21,2.1-2.66,4.91-6.94,8-9,2.61-1.74,6.39-2.84,8-5C287.39,120.25,284.11,120.63,284,120.37Z" transform="translate(-12.43 -12.63)"/>
    <ellipse class="cls-3" cx="248.07" cy="96.87" rx="29.5" ry="20.5"/>
    <ellipse class="cls-3" cx="124.07" cy="131.62" rx="13.5" ry="12.25"/>
  </g>
  <g id="Layer_3" data-name="Layer 3">
    <path class="cls-1" d="M275.54,159.59c-.66-7.52,5.06-8.07,4.74-15.45-.29-6.78-5.93-5.68-6.21-11.42-.11-2.22,1.27-4.8,3.63-7.27-9.34-2.3-18.82-4.33-28-2.58.89,1.37,1.92,2.8,3.12,4.32,7.43,9.44,11.9,10.17,14,17.7,3.83,13.75-7.54,24-2.44,30.13,4,4.89,13.64,2.14,16.4.37C286.12,172,276,165.32,275.54,159.59Z" transform="translate(-12.43 -12.63)"/>
    <path class="cls-1" d="M385.5,84.5c-1.38-1.48-16,8.59-34,16-5.35,2.2-24.5-1.57-46-5-10.75-1.72-4.19-1.48-29-12-21.66-9.18-32.48-13.78-40-15-8.21-1.34-10.41-.42-63,5-15.94,1.64-19,7-25,5-14.64-4.88-25.11-23.26-32-33-10-14.14-7.59-17-15-23-10.8-8.76-28.23-12.7-40-6-5.18,2.95-4.08,6-10,9S39.18,28.55,29,28.59c-8.92,0-14.28,3.16-15.48,4.91-2.82,4.11,5.4,10.37,13,17,14.74,12.86,27.53,2.57,47,11,10.89,4.71,21.59,23.48,43,61,.85,1.5,1.85,3.26,2.78,5.28,6.56,23,25.83,36.38,33.22,17.72,5.64-.81,14.37,1.41,21,2,28.74,2.57,35.36-20.62,58-16,9.5,1.94,11.92,6.57,19,11,22.47,15.71,28,4,37.44-23.88,2.89-5.19,7.16-6.85,12.56-9.12,13.12-5.51,23.38,0,44,0,15,0,20.69-5.64,27-11C381.18,90.28,386.78,85.88,385.5,84.5Z" transform="translate(-12.43 -12.63)"/>
    <path class="cls-1" d="M136.29,137.81c1.45,1,2.61,3.25,4,4.61,1.16,1.17,8.83,9.15,8.94,20.49.1,10.69-6.58,16.57-4.75,18.18,2.3,2,15.81-4.77,17.17-14.32,1.11-7.73-6.69-10.67-5.23-18.7,1.36-7.45,4.11-9.6,5.78-14.72.4-1.24,1.17-3,.47-3.7C153.26,131.54,144.3,133,136.29,137.81Z" transform="translate(-12.43 -12.63)"/>
    <path class="cls-2" d="M72.78,43.72c0,4.22.3,42.59,12.34,45.39a8.85,8.85,0,0,0,5.07-.56c8.9-3.52,10.91-19.48,9.57-29.28C97.68,44,86.26,34.78,82.75,32.15Z" transform="translate(-12.43 -12.63)"/>
    <path class="cls-2" d="M160,122.56c3.38,5.85,9.52,16.47,5.64,24-6,11.73-31.39,7-32.79,14.1-1.17,5.91-1,7.69-2.38,13.79-.85,3.68-18.37,2.39-24,1-7.72-1.91,16.16-10.11,16-18-.24-12.28,10-9.22,16.32-25.18,4.17-10.55,3.63-20.86,2.33-28.33A51,51,0,0,1,160,122.56Z" transform="translate(-12.43 -12.63)"/>
    <ellipse class="cls-3" cx="140.57" cy="96.87" rx="31" ry="22.5"/>
    <ellipse class="cls-3" cx="234.07" cy="97.37" rx="38.5" ry="21"/>
    <ellipse class="cls-3" cx="235.07" cy="97.37" rx="38.5" ry="21"/>
    <ellipse class="cls-3" cx="236.07" cy="97.37" rx="38.5" ry="21"/>
    <ellipse class="cls-3" cx="237.07" cy="97.37" rx="38.5" ry="21"/>
    <ellipse class="cls-3" cx="238.07" cy="97.37" rx="38.5" ry="21"/>
    <ellipse class="cls-3" cx="239.07" cy="97.37" rx="38.5" ry="21"/>
    <ellipse class="cls-3" cx="69.57" cy="24.37" rx="13" ry="9"/>
    <ellipse class="cls-3" cx="256.82" cy="119.62" rx="14.75" ry="17.75"/>
    <path class="cls-2" d="M273.33,100.8a4.64,4.64,0,0,1-1.7,3.23,5.14,5.14,0,0,1-1.65,1,5.14,5.14,0,0,1-1.2,1.49,4.52,4.52,0,0,1-4.46,1,4.68,4.68,0,0,1-1.67,2.95,4.54,4.54,0,0,1-5.06.79c-6.23,5.75-12.33,11.64-18.79,17.14,6.29,9.32,15.11,17.48,24.72,15.44,2.44-.52,4.61-1.45,6.4-.24,4.24,2.87,3.35,15.81-3.16,23.87-4.62,5.73-10.4,6.92-9.94,9.91.36,2.33,4.24,4.07,7.5,4.09,6.35,0,15.23-5.95,13.52-10.36-1.79-4.61,2.32-12.4,6.7-33.54,1.78-8.56-11.1-9.69-11.46-17.85-.15-3.39-.82-8.46.17-12,.84-3,3-6.33,2.79-9C275.79,98.52,273.55,101,273.33,100.8Z" transform="translate(-12.43 -12.63)"/>
    <ellipse class="cls-3" cx="248.07" cy="96.87" rx="29.5" ry="20.5"/>
  </g>
  <g id="Layer_4" data-name="Layer 4">
    <path class="cls-1" d="M238.5,170.5c8.52-6.57,4.64-2,9.34-7.73,4.32-5.23,5.4-8.19,9-12.64,1.4-1.72,4.16-2.71,7.57-3-5.39-8-11.07-15.82-19-20.65-.25,1.61-.79,8.06-.92,10-.8,12,2.36,10.83-1.12,17.82-6.37,12.77-23.53,8.18-23.88,16.18-.28,6.34,8.77,4.46,12,5C237.5,176.5,235.72,172.64,238.5,170.5Z" transform="translate(-12.43 -12.63)"/>
    <path class="cls-1" d="M385.5,89.5c-1.38-1.48-12.94,10.19-32,14-10,2-26.5-4.57-48-8-10.75-1.72-4.19-1.48-29-12-21.66-9.18-32.48-13.78-40-15-8.21-1.34-10.41-.42-63,5-15.94,1.64-19,7-25,5-14.64-4.88-25.11-23.26-32-33-10-14.14-7.59-17-15-23-10.8-8.76-28.23-12.7-40-6-5.18,2.95-4.08,6-10,9S39.18,28.55,29,28.59c-8.92,0-14.28,3.16-15.48,4.91-2.82,4.11,5.4,10.37,13,17,14.74,12.86,27.53,2.57,47,11,10.89,4.71,21.59,23.48,43,61,.85,1.5,1.85,3.26,2.78,5.28,6.56,23,25.83,36.38,33.22,17.72,5.64-.81,14.37,1.41,21,2,28.74,2.57,35.36-20.62,58-16,9.5,1.94,11.92,6.57,19,11,22.47,15.71,28,4,37.44-23.88,2.89-5.19,7.16-6.85,12.56-9.12,13.12-5.51,19.38,2,40,2,15,0,20.69-.64,27-6C377.18,97.28,386.78,90.88,385.5,89.5Z" transform="translate(-12.43 -12.63)"/>
    <path class="cls-1" d="M136.29,137.81c1.45,1,2.61,3.25,4,4.61,1.16,1.17,9.83,9.15,9.94,20.49.1,10.69,8.47,12,10.3,13.58,2.3,2,20,0,14-10-.61-1-9.33,1.78-13-1-3.89-2.94-5.42-12.86-5.12-17.43a16.78,16.78,0,0,1,1.3-4.9c1.42-3.88,3.24-6,4.47-9.82.4-1.24,1.17-3,.47-3.7C153.26,131.54,144.3,133,136.29,137.81Z" transform="translate(-12.43 -12.63)"/>
    <path class="cls-2" d="M70.89,41.41C71.39,45.6,76.24,83.66,88.53,85a8.85,8.85,0,0,0,5-1.16c8.42-4.55,8.52-20.64,6-30.21C95.64,38.73,83.2,30.93,79.41,28.74Z" transform="translate(-12.43 -12.63)"/>
    <path class="cls-2" d="M157.26,124.08c1.71,6,4.83,16.85-1.67,23.41-10.07,10.16-37.39,6.1-41.12,12.54-3.11,5.39-1.46,10.09-4.89,15.62-2.07,3.34-20.17,3.61-25.67,1.49-7.55-2.91,14.28-12.17,16.62-19.62,3.64-11.57,19.5-13.22,31.23-27.32a51.54,51.54,0,0,0,11.46-26.29A39.74,39.74,0,0,1,157.26,124.08Z" transform="translate(-12.43 -12.63)"/>
    <ellipse class="cls-3" cx="137.57" cy="101.87" rx="31" ry="22.5"/>
    <ellipse class="cls-3" cx="234.07" cy="97.37" rx="38.5" ry="21"/>
    <ellipse class="cls-3" cx="235.07" cy="97.37" rx="38.5" ry="21"/>
    <ellipse class="cls-3" cx="236.07" cy="97.37" rx="38.5" ry="21"/>
    <ellipse class="cls-3" cx="237.07" cy="97.37" rx="38.5" ry="21"/>
    <ellipse class="cls-3" cx="238.07" cy="97.37" rx="38.5" ry="21"/>
    <ellipse class="cls-3" cx="239.07" cy="97.37" rx="38.5" ry="21"/>
    <ellipse class="cls-3" cx="69.57" cy="24.37" rx="13" ry="9"/>
    <ellipse class="cls-3" cx="256.82" cy="119.62" rx="14.75" ry="17.75"/>
    <path class="cls-2" d="M313.5,173.5c6.45-12.9-8.62-2.65-17-19-5.1-9.95-10-16-7.42-21.81,1.38-3.1-.82-8.46.17-12,.09-.32.2-.64.31-1a4.89,4.89,0,0,1-1.66-2.93c-.09.09-.16.18-.26.27a5.14,5.14,0,0,1-1.65,1,5.14,5.14,0,0,1-1.2,1.49,4.52,4.52,0,0,1-4.46,1,4.69,4.69,0,0,1-1.67,2.95,4.54,4.54,0,0,1-5.06.79c-6.23,5.75-12.33,11.64-18.79,17.14,6.29,9.32,15.11,17.48,24.72,15.44a15.63,15.63,0,0,1,9,1.69c4.24,2.87,16.3,12.78,8,19-8,6-4.31,7.15-1,7,2.35-.11,12.83,2,14-1C312.44,175.88,311.5,177.5,313.5,173.5Z" transform="translate(-12.43 -12.63)"/>
    <ellipse class="cls-3" cx="247.57" cy="104.87" rx="28" ry="23.5"/>
  </g>
</svg>
